# xmcd
#
# Track frame offsets:
#	150
#	12059
#	23451
#	34794
#	47209
#	57463
#	67231
#	79019
#	91289
#	102252
#	114079
#	124176
#	136473
#	146948
#	158595
#	171096
#	182960
#	198061
#	209218
#	224231
#	235868
#	248681
#	259611
#	271644
#
# Disc length: 3793 seconds
#
# Revision: 1
# Processed by: cddbd v1.5.2PL0 Copyright (c) Steve Scherf et al.
# Submitted via: EasyCDDAExtractor 11.0.3.1
#
DISCID=590ecf18
DTITLE=Bobby Bare - The Singles 1959-1969 [cd 2]
DYEAR=1969
DGENRE=Country
TTITLE0=The Streets Of Baltimore
TTITLE1=She Took My Sunshine Away
TTITLE2=Homesick
TTITLE3=Guess I'll Move On Down The Line
TTITLE4=Charleston Railroad Tavern
TTITLE5=Vincennes
TTITLE6=Come Kiss Me Love
TTITLE7=Sandy's Crying Again
TTITLE8=The Pineywood Hills
TTITLE9=They Covered Up The Old Swimming Hole
TTITLE10=Find Out What's Happening
TTITLE11=When Am I Ever Gonna Settle Down
TTITLE12=A  Little Bit Later On Down The Line
TTITLE13=Don't Do Like I Done Son
TTITLE14=The Town That Broke My Heart
TTITLE15=My Baby
TTITLE16=(Margie's At The) Lincoln Park Inn
TTITLE17=Rainy Day In Richmond
TTITLE18=Which One Will It Be
TTITLE19=My Frame Of  Mind
TTITLE20=God Bless America Again
TTITLE21=Baby What Else Can I Do
TTITLE22=Rosalie (German)
TTITLE23=Alle Glauben Dass Ich Glucklich Bin (German)
EXTD=
EXTT0=
EXTT1=
EXTT2=
EXTT3=
EXTT4=
EXTT5=
EXTT6=
EXTT7=
EXTT8=
EXTT9=
EXTT10=
EXTT11=
EXTT12=
EXTT13=
EXTT14=
EXTT15=
EXTT16=
EXTT17=
EXTT18=
EXTT19=
EXTT20=
EXTT21=
EXTT22=
EXTT23=
PLAYORDER=
